<svg width="45" height="37" viewBox="0 0 45 37" fill="none" xmlns="http://www.w3.org/2000/svg">
<path d="M0 35.0975V31.89C0 30.6573 0.292667 29.647 0.878 28.859C1.463 28.071 2.24283 27.4437 3.2175 26.977C5.0175 26.1103 6.96433 25.3897 9.058 24.815C11.152 24.2403 13.501 23.953 16.105 23.953C18.709 23.953 21.0558 24.2363 23.1455 24.803C25.2355 25.3697 27.1845 26.0863 28.9925 26.953C29.9592 27.4277 30.735 28.0618 31.32 28.8555C31.9053 29.6488 32.198 30.6603 32.198 31.89V35.0975C32.198 35.5868 32.0363 35.993 31.713 36.316C31.39 36.6393 30.9838 36.801 30.4945 36.801H1.7035C1.21417 36.801 0.808 36.6393 0.485 36.316C0.161667 35.993 0 35.5868 0 35.0975ZM3.4185 33.3825H28.7915V31.926C28.7915 31.426 28.6498 31.0237 28.3665 30.719C28.0832 30.4143 27.7415 30.1787 27.3415 30.012C25.9082 29.3787 24.3162 28.7782 22.5655 28.2105C20.8145 27.6432 18.661 27.3595 16.105 27.3595C13.5487 27.3595 11.3952 27.6452 9.6445 28.2165C7.89383 28.7882 6.30183 29.3875 4.8685 30.0145C4.4605 30.1795 4.11683 30.4143 3.8375 30.719C3.55817 31.0237 3.4185 31.426 3.4185 31.926V33.3825ZM16.105 20.953C13.8213 20.953 11.9495 20.2095 10.4895 18.7225C9.02983 17.2355 8.3 15.3993 8.3 13.214H7.8C7.50833 13.214 7.25483 13.106 7.0395 12.89C6.82417 12.6743 6.7165 12.4202 6.7165 12.1275C6.7165 11.8385 6.82417 11.586 7.0395 11.37C7.25483 11.1543 7.50833 11.0465 7.8 11.0465H8.3C8.3 9.6735 8.65533 8.43167 9.366 7.321C10.0763 6.21067 11.0087 5.326 12.163 4.667V6.6245C12.163 6.8355 12.2372 7.014 12.3855 7.16C12.5335 7.306 12.7133 7.379 12.925 7.379C13.1503 7.379 13.3337 7.30634 13.475 7.161C13.6163 7.01567 13.687 6.8395 13.687 6.6325V4.041C13.9563 3.98233 14.326 3.926 14.796 3.872C15.2657 3.818 15.719 3.791 16.156 3.791C16.5847 3.791 17.0323 3.818 17.499 3.872C17.9657 3.926 18.3355 3.98217 18.6085 4.0405V6.6325C18.6085 6.8395 18.6795 7.01567 18.8215 7.161C18.9638 7.30634 19.1517 7.379 19.385 7.379C19.593 7.379 19.772 7.306 19.922 7.16C20.072 7.014 20.147 6.837 20.147 6.629V4.667C21.2933 5.326 22.205 6.2105 22.882 7.3205C23.5593 8.43084 23.898 9.67284 23.898 11.0465H24.398C24.6897 11.0465 24.9432 11.1542 25.1585 11.3695C25.3738 11.5845 25.4815 11.8377 25.4815 12.129C25.4815 12.4203 25.3738 12.674 25.1585 12.89C24.9432 13.106 24.6897 13.214 24.398 13.214H23.898C23.898 15.403 23.17 17.2402 21.714 18.7255C20.2583 20.2105 18.3887 20.953 16.105 20.953ZM16.1105 17.5345C17.4708 17.5345 18.541 17.1283 19.321 16.316C20.1013 15.504 20.4915 14.446 20.4915 13.142H11.7185C11.7185 14.4437 12.108 15.5012 12.887 16.3145C13.6657 17.1278 14.7402 17.5345 16.1105 17.5345ZM31.364 23.0835L31.314 22.5835C31.0807 22.4502 30.8385 22.3002 30.5875 22.1335C30.3362 21.9668 30.1098 21.7962 29.9085 21.6215L29.3545 21.9215C29.1168 22.0548 28.8897 22.0887 28.673 22.023C28.456 21.9573 28.269 21.826 28.112 21.629L28.064 21.5335C27.8973 21.3002 27.839 21.0585 27.889 20.8085C27.939 20.5585 28.064 20.3502 28.264 20.1835L28.814 19.7835C28.7473 19.6502 28.714 19.5252 28.714 19.4085V18.6585C28.714 18.5418 28.7473 18.4168 28.814 18.2835L28.264 17.8835C28.064 17.7168 27.939 17.5168 27.889 17.2835C27.839 17.0502 27.8973 16.8168 28.064 16.5835L28.114 16.4335C28.2727 16.2335 28.4617 16.1002 28.681 16.0335C28.9003 15.9668 29.128 16.0002 29.364 16.1335L29.914 16.4335L30.614 15.9335C30.8473 15.7668 31.0807 15.6168 31.314 15.4835L31.364 14.9335C31.3973 14.6668 31.5057 14.4502 31.689 14.2835C31.8723 14.1168 32.0973 14.0335 32.364 14.0335H32.464C32.7227 14.0335 32.945 14.1252 33.131 14.3085C33.317 14.4918 33.4273 14.7168 33.462 14.9835L33.514 15.4835C33.7473 15.6148 33.9787 15.7643 34.208 15.932C34.4373 16.0997 34.6727 16.2668 34.914 16.4335L35.464 16.1335C35.6973 16.0002 35.9223 15.9668 36.139 16.0335C36.3557 16.1002 36.5473 16.2335 36.714 16.4335L36.764 16.5335C36.9227 16.7668 36.979 17.0085 36.933 17.2585C36.887 17.5085 36.764 17.7168 36.564 17.8835L36.014 18.2835C36.0727 18.4168 36.104 18.5418 36.108 18.6585C36.112 18.7752 36.114 18.9002 36.114 19.0335C36.114 19.1668 36.112 19.2918 36.108 19.4085C36.104 19.5252 36.0727 19.6502 36.014 19.7835L36.564 20.1835C36.764 20.3502 36.887 20.5502 36.933 20.7835C36.979 21.0168 36.9207 21.2502 36.758 21.4835L36.714 21.6335C36.5473 21.8335 36.3557 21.9668 36.139 22.0335C35.9223 22.1002 35.6973 22.0668 35.464 21.9335L34.914 21.6335C34.714 21.8002 34.489 21.9668 34.239 22.1335C33.989 22.3002 33.7473 22.4502 33.514 22.5835L33.462 23.1335C33.4273 23.4002 33.317 23.6168 33.131 23.7835C32.945 23.9502 32.7227 24.0335 32.464 24.0335H32.364C32.0973 24.0335 31.8723 23.9418 31.689 23.7585C31.5057 23.5752 31.3973 23.3502 31.364 23.0835ZM32.414 20.9335C32.9473 20.9335 33.3973 20.7502 33.764 20.3835C34.1307 20.0168 34.314 19.5668 34.314 19.0335C34.314 18.5002 34.1307 18.0502 33.764 17.6835C33.3973 17.3168 32.9453 17.1335 32.408 17.1335C31.8707 17.1335 31.4207 17.3168 31.058 17.6835C30.6953 18.0502 30.514 18.5002 30.514 19.0335C30.514 19.5668 30.6953 20.0168 31.058 20.3835C31.4207 20.7502 31.8727 20.9335 32.414 20.9335ZM36.674 12.4L36.424 11.35C36.0907 11.2167 35.749 11.0333 35.399 10.8C35.049 10.5667 34.7573 10.3167 34.524 10.05L33.124 10.553C32.8907 10.6257 32.6657 10.6267 32.449 10.556C32.2323 10.4853 32.0573 10.35 31.924 10.15L31.724 9.85C31.5907 9.61667 31.549 9.38333 31.599 9.15C31.649 8.91667 31.774 8.71667 31.974 8.55L33.074 7.7C33.0073 7.53333 32.949 7.35 32.899 7.15C32.849 6.95 32.824 6.75 32.824 6.55C32.824 6.35 32.849 6.152 32.899 5.956C32.949 5.76 33.0073 5.57467 33.074 5.4L31.974 4.55C31.774 4.39133 31.649 4.18584 31.599 3.9335C31.549 3.6815 31.5907 3.45467 31.724 3.253L31.924 3C32.0573 2.8 32.2323 2.65833 32.449 2.575C32.6657 2.49167 32.8907 2.48333 33.124 2.55L34.524 3.05C34.7573 2.79133 35.049 2.5355 35.399 2.2825C35.749 2.0295 36.0907 1.852 36.424 1.75L36.674 0.7C36.7407 0.5 36.8573 0.333333 37.024 0.2C37.1907 0.0666667 37.374 0 37.574 0H38.074C38.274 0 38.4573 0.0666667 38.624 0.2C38.7907 0.333333 38.9073 0.5 38.974 0.7L39.224 1.75C39.5573 1.85 39.899 2.027 40.249 2.281C40.599 2.535 40.8907 2.79133 41.124 3.05L42.524 2.55C42.7573 2.48333 42.9823 2.48333 43.199 2.55C43.4157 2.61667 43.5907 2.75 43.724 2.95L43.924 3.25C44.0573 3.48333 44.099 3.71867 44.049 3.956C43.999 4.19334 43.874 4.39133 43.674 4.55L42.574 5.4C42.6407 5.57467 42.699 5.76084 42.749 5.9585C42.799 6.1565 42.824 6.35367 42.824 6.55C42.824 6.75 42.799 6.95 42.749 7.15C42.699 7.35 42.6407 7.53333 42.574 7.7L43.674 8.55C43.874 8.71667 43.999 8.925 44.049 9.175C44.099 9.425 44.0573 9.65 43.924 9.85L43.724 10.1C43.5907 10.3 43.4157 10.4437 43.199 10.531C42.9823 10.6183 42.7573 10.6257 42.524 10.553L41.124 10.05C40.8907 10.3167 40.599 10.5667 40.249 10.8C39.899 11.0333 39.5573 11.2167 39.224 11.35L38.974 12.4C38.9073 12.6 38.7907 12.7667 38.624 12.9C38.4573 13.0333 38.274 13.1 38.074 13.1H37.574C37.374 13.1 37.1907 13.0333 37.024 12.9C36.8573 12.7667 36.7407 12.6 36.674 12.4ZM37.824 9.45C38.6573 9.45 39.349 9.175 39.899 8.625C40.449 8.075 40.724 7.38333 40.724 6.55C40.724 5.71667 40.449 5.025 39.899 4.475C39.349 3.925 38.6573 3.65 37.824 3.65C36.9907 3.65 36.299 3.925 35.749 4.475C35.199 5.025 34.924 5.71667 34.924 6.55C34.924 7.38333 35.199 8.075 35.749 8.625C36.299 9.175 36.9907 9.45 37.824 9.45Z" fill="#06030C"/>
</svg>
